<?xml version="1.0" encoding="utf-8"?>
<!-- Generator: Adobe Illustrator 19.0.0, SVG Export Plug-In . SVG Version: 6.00 Build 0)  -->
<svg version="1.1" id="图层_1" xmlns="http://www.w3.org/2000/svg" xmlns:xlink="http://www.w3.org/1999/xlink" x="0px" y="0px"
	 viewBox="0 0 514.2 527.3" style="enable-background:new 0 0 514.2 527.3;" xml:space="preserve">
<style type="text/css">
	.st0{fill:none;stroke:#231815;stroke-width:4;stroke-miterlimit:10;}
	.st1{fill:#231815;}
</style>
<circle id="XMLID_447_" class="st0" cx="160" cy="292.6" r="12.9"/>
<path id="XMLID_315_" class="st1" d="M258.6,135.7c0,3.6-2.2,9.5-6.6,17.8c-4.4,8.3-8.1,14.4-11.2,18.4v78.4h-11.7v-63.6l-0.3-0.2
	l-13.6,14.2l-8.5-9.6c18.8-15.3,31.2-30.8,37.3-46.5c0-1.6-0.4-2.4-1.3-2.4h-33.4v-11.9h17.9l0.2-18.1h12.3v17.9l12.8,0.2l6.1,4.4
	V135.7z M264.5,188.7l-9.8,5.2c-2.5-4.7-6.2-10.5-11.4-17.6l9-5.9C255.2,174.3,259.3,180.4,264.5,188.7z M318.2,230.8
	c0,1.6,1,3,3,4.1c2,1.1,4.3,1.6,7.1,1.6c3.1,0,5-0.9,5.8-2.6l0.6-11.9l10.9,2l-0.8,13.7c-0.7,4.1-2.2,6.8-4.2,8.2
	c-2.1,1.3-6.1,2-12.1,2c-1.2,0-3.7-0.1-7.5-0.3l-5-0.3c-2-0.1-4.1-1.4-6.3-3.9c-2.2-2.5-3.3-4.6-3.3-6.2v-35.4l-38.7-0.5l-0.6-0.7
	v-84l1.1-1.1l67,0.3l0.3,0.8v84l-0.8,0.7h-16.1L318.2,230.8z M323.5,139.6l-0.2-12.6h-44.1v12.6H323.5z M323.5,164.9v-13.5h-44.3
	v13.5H323.5z M323.5,189.7v-13.4h-44.3l0.2,13.5L323.5,189.7z"/>
<path id="XMLID_33_" class="st1" d="M340,276l-35.7-0.3c4.8-4,9.3-9.7,13.5-17l-7.8-6.8l-50.4-0.2l-1.9,0c0,0-34.2,30.6-33.3,30.3
	v49.2c0,1.1,0,2.2-0.1,3.4c-0.3,4-0.9,8.1-2.1,12.6c-0.1,0.5-0.3,1.1-0.5,1.7c0,0,0,0.1,0,0.1c0,0.1-0.1,0.3-0.1,0.5
	c-0.7,2.6-1.8,5.5-3.1,8.8c-2.1,5.2-4.9,11.3-8.4,18.3l12.7,4.7c4.3-7.1,8.7-18.4,13.2-33.8c0-0.1,0.1-0.3,0.1-0.4l93.4,0.3v2.6
	c0.1,1.3,0.2,3.1,0.2,5.4c0,5.5-0.5,9.2-1.5,10.8c-1,1.7-3,2.5-6.2,2.5c-2.9,0-11.3-1.5-25.1-4.4v14.5c1.5,0.2,3.9,0.6,7.2,1.1
	c3.3,0.5,6.3,0.9,9.2,1.2c2.9,0.3,5.7,0.5,8.6,0.5c6.2,0,10.8-0.9,13.7-2.8l1.6-1.1c3.1-2.8,4.7-5.8,4.7-8.8l0.1-32.2v0l0.1-58.3
	C341.7,276.8,341,276,340,276z M328.4,288.2l0.8,0.8v16.5h-40.8v-17.3H328.4z M329.2,317.7v17.1h-40.8v-17.1H329.2z M231.6,275.7
	l12.6-11.4h56c-2.7,2.7-8.2,6.5-16.5,11.4H231.6z M237.4,305.5V289l1-0.8h37.3v17.3H237.4z M275.8,317.7v17.1h-38.3v-17.1H275.8z"/>
<polygon id="XMLID_432_" class="st1" points="300.2,198 259.6,251.7 250.1,264.2 241.4,275.7 224.4,298.2 212,314.6 197.2,334.2 
	187.7,346.6 165.9,375.5 157.5,386.4 147.5,378.8 155.8,367.9 172.1,346.4 181.5,333.9 201.9,306.9 290.1,190.4 "/>
<path id="XMLID_399_" class="st1" d="M224.4,298.2v33.1c0,1.1,0,2.2-0.1,3.4l-2.3,0c-1.3-7.7-4.9-14.6-10-20L224.4,298.2z"/>
<polygon id="XMLID_431_" class="st1" points="342,336.7 342,336.7 341.8,349.4 330.8,349.1 246.5,347.5 234,347.2 233.9,347.2 
	203,346.6 188.9,346.4 164.8,345.9 145.8,345.5 146,332.9 165.3,333.3 197.4,333.9 211.5,334.2 233.8,334.6 235.9,334.6 "/>
<g id="XMLID_80_">
</g>
<g id="XMLID_81_">
</g>
<g id="XMLID_82_">
</g>
<g id="XMLID_83_">
</g>
<g id="XMLID_84_">
</g>
</svg>
